<?xml version="1.0" standalone="no"?>
<!DOCTYPE svg PUBLIC "-//W3C//DTD SVG 20010904//EN"
 "http://www.w3.org/TR/2001/REC-SVG-20010904/DTD/svg10.dtd">
<svg version="1.0" xmlns="http://www.w3.org/2000/svg"
 width="320.000000pt" height="320.000000pt" viewBox="0 0 320.000000 320.000000"
 preserveAspectRatio="xMidYMid meet">
<metadata>
Created by potrace 1.11, written by Peter Selinger 2001-2013
</metadata>
<g transform="translate(0.000000,320.000000) scale(0.100000,-0.100000)"
fill="#000000" stroke="none">
<path d="M1435 3193 c-547 -67 -1008 -381 -1252 -854 -43 -84 -64 -131 -102
-234 -19 -53 -61 -238 -69 -305 -15 -138 -7 -386 17 -505 18 -86 19 -90 40
-158 129 -420 416 -762 804 -961 163 -83 366 -146 527 -163 93 -10 328 -10
395 -1 139 20 185 30 305 69 559 182 972 662 1077 1249 27 155 24 432 -8 578
-6 30 -12 59 -13 65 -6 31 -30 108 -51 167 -78 218 -196 406 -356 570 -103
105 -215 198 -231 192 -5 -1 -8 2 -8 7 0 12 -167 111 -245 146 -127 57 -271
100 -435 130 -40 7 -349 13 -395 8z"/>
</g>
</svg>
